<?xml version="1.0" encoding="utf-8"?>
<!-- Generator: Adobe Illustrator 17.0.2, SVG Export Plug-In . SVG Version: 6.00 Build 0)  -->
<!DOCTYPE svg PUBLIC "-//W3C//DTD SVG 1.1//EN" "http://www.w3.org/Graphics/SVG/1.1/DTD/svg11.dtd">
<svg version="1.1" id="Layer_1" xmlns="http://www.w3.org/2000/svg" xmlns:xlink="http://www.w3.org/1999/xlink" x="0px" y="0px"
	 width="183.069px" height="25px" viewBox="0 0 183.069 25" enable-background="new 0 0 183.069 25" xml:space="preserve">
<g>
	<path d="M3.626,4.851c0-0.334-0.19-0.524-0.524-0.524H2.077V1.681h3.051c1.144,0,1.621,0.5,1.621,1.62v12.132
		c0,0.334,0.19,0.524,0.524,0.524h3.694c0.333,0,0.524-0.19,0.524-0.524v-1.025h2.836v2.574c0,1.145-0.477,1.621-1.621,1.621h-7.46
		c-1.144,0-1.621-0.477-1.621-1.621L3.626,4.851L3.626,4.851z"/>
	<path d="M21.335,6.161c3.48,0,5.387,2.55,5.387,5.768c0,0.357-0.071,1.12-0.071,1.12h-8.39c0.238,2.146,1.811,3.266,3.646,3.266
		c1.955,0,3.408-1.358,3.408-1.358l1.263,2.098c0,0-1.859,1.835-4.886,1.835c-4.028,0-6.531-2.908-6.531-6.364
		C15.162,8.783,17.688,6.161,21.335,6.161z M23.623,10.952c-0.047-1.454-1.048-2.455-2.288-2.455c-1.549,0-2.646,0.93-2.979,2.455
		H23.623z"/>
	<path d="M35.682,10.976h0.381V10.88c0-1.739-0.691-2.383-2.24-2.383c-0.548,0-1.621,0.143-1.621,0.811v0.644H29.39V8.665
		c0-2.265,3.193-2.503,4.457-2.503c4.052,0,5.244,2.121,5.244,4.838v4.529c0,0.333,0.191,0.524,0.524,0.524h0.954v2.55h-2.717
		c-1.12,0-1.549-0.62-1.549-1.335c0-0.31,0.024-0.524,0.024-0.524h-0.048c0,0-0.929,2.146-3.67,2.146
		c-2.169,0-4.147-1.358-4.147-3.79C28.461,11.285,33.704,10.976,35.682,10.976z M33.346,16.53c1.621,0,2.765-1.717,2.765-3.194
		v-0.287h-0.524c-1.573,0-4.076,0.215-4.076,1.907C31.511,15.767,32.107,16.53,33.346,16.53z"/>
	<path d="M42.998,9.546c0-0.357-0.19-0.524-0.524-0.524H41.52V6.448h2.765c1.073,0,1.621,0.453,1.621,1.478v0.715
		c0,0.453-0.048,0.763-0.048,0.763h0.048c0.548-1.739,2.002-3.122,3.861-3.122c0.262,0,0.548,0.048,0.548,0.048v2.979
		c0,0-0.31-0.048-0.739-0.048c-1.287,0-2.765,0.738-3.313,2.55c-0.167,0.596-0.262,1.264-0.262,1.979v4.814h-3.003
		C42.998,18.604,42.998,9.546,42.998,9.546z"/>
	<path d="M52.96,9.546c0-0.357-0.19-0.524-0.524-0.524h-0.954V6.448h2.789c1.073,0,1.597,0.5,1.597,1.358v0.357
		c0,0.263-0.048,0.524-0.048,0.524h0.048c0.524-1.024,1.835-2.526,4.29-2.526c2.693,0,4.242,1.406,4.242,4.624v4.743
		c0,0.333,0.191,0.524,0.524,0.524h0.954v2.55h-2.884c-1.145,0-1.621-0.477-1.621-1.621v-5.577c0-1.478-0.381-2.479-1.907-2.479
		c-1.621,0-2.836,1.025-3.265,2.479c-0.167,0.501-0.238,1.049-0.238,1.621v5.577H52.96V9.546z"/>
	<path d="M68.381,9.546c0-0.357-0.191-0.524-0.524-0.524h-0.954V6.448h2.884c1.12,0,1.597,0.5,1.597,1.62v7.461
		c0,0.333,0.191,0.524,0.524,0.524h0.953v2.55h-2.884c-1.12,0-1.597-0.477-1.597-1.621V9.546H68.381z M68.524,1.681h2.622v2.788
		h-2.622C68.524,4.469,68.524,1.681,68.524,1.681z"/>
	<path d="M75.411,9.546c0-0.357-0.19-0.524-0.524-0.524h-0.954V6.448h2.789c1.072,0,1.597,0.5,1.597,1.358v0.357
		c0,0.263-0.048,0.524-0.048,0.524h0.048c0.524-1.024,1.835-2.526,4.29-2.526c2.693,0,4.242,1.406,4.242,4.624v4.743
		c0,0.333,0.19,0.524,0.524,0.524h0.953v2.55h-2.884c-1.144,0-1.62-0.477-1.62-1.621v-5.577c0-1.478-0.382-2.479-1.907-2.479
		c-1.62,0-2.836,1.025-3.266,2.479c-0.166,0.501-0.238,1.049-0.238,1.621v5.577H75.41V9.546C75.41,9.546,75.411,9.546,75.411,9.546z
		"/>
	<path d="M94.907,6.161c2.812,0,3.742,1.716,3.742,1.716h0.047c0,0,0-0.143,0-0.31c0-0.548,0.382-1.12,1.335-1.12h2.812v2.574h-0.93
		c-0.31,0-0.524,0.167-0.524,0.477v8.365c0,4.171-3.241,5.744-6.411,5.744c-1.525,0-3.146-0.429-4.313-1.049l0.929-2.383
		c0,0,1.502,0.811,3.361,0.811c1.835,0,3.432-0.787,3.432-2.979v-0.572c0-0.286,0.024-0.644,0.024-0.644h-0.048
		c-0.715,1.025-1.764,1.573-3.385,1.573c-3.479,0-5.458-2.813-5.458-6.149S91.403,6.161,94.907,6.161z M98.458,12.24
		c0-2.766-1.382-3.504-3.026-3.504c-1.836,0-2.837,1.335-2.837,3.385c0,2.121,1.073,3.693,3.027,3.693
		C97.076,15.814,98.458,14.98,98.458,12.24z"/>
	<path d="M105.87,14.074c0,0,1.74,2.002,4.1,2.002c1.287,0,2.431-0.691,2.431-2.002c0-2.884-7.96-2.646-7.96-7.913
		c0-2.741,2.383-4.767,5.648-4.767c1.979,0,5.029,0.93,5.029,3.337v1.572h-2.813V5.54c0-0.786-1.12-1.311-2.24-1.311
		c-1.431,0-2.479,0.739-2.479,1.812c0,2.884,7.961,2.312,7.961,7.865c0,2.693-2.073,4.981-5.625,4.981
		c-3.742,0-5.815-2.622-5.815-2.622L105.87,14.074z"/>
	<path d="M118.525,9.546c0-0.357-0.191-0.524-0.524-0.524h-0.953V6.448h2.692c1.121,0,1.525,0.5,1.525,1.168
		c0,0.286,0,0.477,0,0.477h0.048c0,0,1.025-1.931,3.861-1.931c3.289,0,5.41,2.598,5.41,6.363c0,3.861-2.383,6.364-5.577,6.364
		c-2.407,0-3.479-1.597-3.479-1.597h-0.048c0,0,0.048,0.429,0.048,1.049v5.028h-3.003L118.525,9.546L118.525,9.546z M124.46,16.338
		c1.668,0,3.074-1.358,3.074-3.766c0-2.312-1.239-3.813-3.026-3.813c-1.573,0-3.051,1.145-3.051,3.838
		C121.457,14.48,122.458,16.338,124.46,16.338z"/>
	<path d="M139.235,10.976h0.382V10.88c0-1.739-0.691-2.383-2.24-2.383c-0.549,0-1.621,0.143-1.621,0.811v0.644h-2.812V8.665
		c0-2.265,3.194-2.503,4.457-2.503c4.052,0,5.244,2.121,5.244,4.838v4.529c0,0.333,0.19,0.524,0.524,0.524h0.953v2.55h-2.718
		c-1.12,0-1.549-0.62-1.549-1.335c0-0.31,0.023-0.524,0.023-0.524h-0.047c0,0-0.93,2.146-3.671,2.146
		c-2.169,0-4.147-1.358-4.147-3.79C132.013,11.285,137.258,10.976,139.235,10.976z M136.9,16.53c1.62,0,2.765-1.717,2.765-3.194
		v-0.287h-0.524c-1.573,0-4.076,0.215-4.076,1.907C135.064,15.767,135.661,16.53,136.9,16.53z"/>
	<path d="M151.986,6.161c1.573,0,4.409,0.644,4.409,2.741v1.43h-2.669V9.665c0-0.668-1.001-0.954-1.74-0.954
		c-2.097,0-3.599,1.598-3.599,3.79c0,2.479,1.835,3.742,3.79,3.742c2.073,0,3.599-1.645,3.599-1.645l1.263,2.098
		c0,0-1.811,2.192-5.124,2.192c-4.004,0-6.578-2.836-6.578-6.364C145.337,9.093,147.815,6.161,151.986,6.161z"/>
	<path d="M164.332,6.161c3.48,0,5.387,2.55,5.387,5.768c0,0.357-0.071,1.12-0.071,1.12h-8.39c0.238,2.146,1.812,3.266,3.646,3.266
		c1.954,0,3.408-1.358,3.408-1.358l1.264,2.098c0,0-1.859,1.835-4.887,1.835c-4.027,0-6.53-2.908-6.53-6.364
		C158.159,8.783,160.685,6.161,164.332,6.161z M166.62,10.952c-0.048-1.454-1.049-2.455-2.288-2.455
		c-1.549,0-2.646,0.93-2.979,2.455H166.62z"/>
	<path d="M172.697,14.741c0,0,1.549,1.788,3.622,1.788c0.93,0,1.645-0.382,1.645-1.192c0-1.716-6.411-1.691-6.411-5.625
		c0-2.431,2.192-3.551,4.719-3.551c1.646,0,4.267,0.548,4.267,2.526v1.264h-2.669V9.354c0-0.571-0.858-0.857-1.525-0.857
		c-1.073,0-1.812,0.381-1.812,1.096c0,1.907,6.459,1.525,6.459,5.578c0,2.287-2.026,3.718-4.672,3.718
		c-3.337,0-5.053-2.169-5.053-2.169L172.697,14.741z"/>
</g>
</svg>
