<?xml version="1.0" encoding="utf-8"?>
<!-- Generator: Adobe Illustrator 17.0.2, SVG Export Plug-In . SVG Version: 6.00 Build 0)  -->
<!DOCTYPE svg PUBLIC "-//W3C//DTD SVG 1.1//EN" "http://www.w3.org/Graphics/SVG/1.1/DTD/svg11.dtd">
<svg version="1.1" id="Layer_1" xmlns="http://www.w3.org/2000/svg" xmlns:xlink="http://www.w3.org/1999/xlink" x="0px" y="0px"
	 width="42.486px" height="48.644px" viewBox="0 0 42.486 48.644" enable-background="new 0 0 42.486 48.644" xml:space="preserve">
<path d="M40.199,12.802C40.199,12.802,40.198,12.802,40.199,12.802c-0.001,0-0.001-0.001-0.001-0.001L21.745,2.146
	c-0.31-0.179-0.69-0.179-1,0L2.293,12.8c-0.002,0.001-0.003,0.001-0.005,0.002c-0.31,0.179-0.5,0.509-0.5,0.866l0.001,21.309
	c0,0.357,0.19,0.688,0.5,0.866l18.455,10.655c0.155,0.089,0.327,0.134,0.5,0.134s0.345-0.044,0.5-0.134l18.454-10.655
	c0.31-0.179,0.5-0.509,0.5-0.866V13.668C40.699,13.31,40.508,12.98,40.199,12.802z M29.675,19.456v8.58l-7.433-4.291v-8.581
	l2.152,1.243L29.675,19.456z M13.811,29.768l7.432-4.291l7.433,4.291l-7.432,4.291l-2.187-1.263L13.811,29.768z M20.243,23.744
	l-2.792,1.613l-4.639,2.679v-8.581l7.431-4.291V23.744z M21.245,4.167l16.454,9.5l-7.022,4.055l-8.934-5.158
	c-0.31-0.179-0.69-0.179-1,0l-8.932,5.157l-7.022-4.054L21.245,4.167z M3.788,15.4l7.023,4.055v10.313c0,0.357,0.19,0.688,0.5,0.866
	c0,0,0,0,0.001,0l0,0l8.933,5.158V43.9L3.79,34.4L3.788,15.4z M38.699,34.399l-16.454,9.5v-8.11l8.921-5.15
	c0.003-0.002,0.007-0.004,0.01-0.006c0.31-0.179,0.5-0.509,0.5-0.866V19.455l7.023-4.055V34.399z"/>
</svg>
